<svg width="144" height="40" viewBox="0 0 144 40" fill="none" xmlns="http://www.w3.org/2000/svg">
<path fill-rule="evenodd" clip-rule="evenodd" d="M15 5C20.6076 5 23.4115 4.99985 25.5 6.20556C26.8682 6.99548 28.0046 8.13183 28.7945 9.5C30.0002 11.5885 30 14.3924 30 20C30 25.6076 30.0002 28.4115 28.7945 30.5C28.0046 31.8682 26.8682 33.0046 25.5 33.7945C23.4115 35.0002 20.6076 35 15 35C9.3924 35 6.58845 35.0002 4.5 33.7945C3.13183 33.0046 1.99548 31.8682 1.20556 30.5C-0.000153691 28.4115 0 25.6076 0 20C0 14.3924 -0.000153691 11.5885 1.20556 9.5C1.99548 8.13183 3.13183 6.99548 4.5 6.20556C6.58845 4.99985 9.3924 5 15 5ZM16.5 8C9.87255 8 4.5 13.3725 4.5 20C4.5 26.6275 9.87255 32 16.5 32C23.1275 32 28.5 26.6275 28.5 20C28.5 13.3725 23.1275 8 16.5 8Z" fill="#615FFF"/>
<path d="M28 20C28 23.866 24.4182 27 20 27C15.5818 27 12 23.866 12 20C12 16.134 15.5818 13 20 13C24.4182 13 28 16.134 28 20Z" fill="#615FFF"/>
<path d="M44.504 23.648V20.096H49.72C50.4027 20.096 51.0213 19.9573 51.576 19.68C52.1307 19.4027 52.568 19.008 52.888 18.496C53.208 17.9627 53.368 17.3227 53.368 16.576C53.368 15.8507 53.208 15.2213 52.888 14.688C52.568 14.1547 52.1307 13.7493 51.576 13.472C51.0213 13.1947 50.4027 13.056 49.72 13.056H44.504V9.504H50.168C51.5973 9.504 52.8773 9.792 54.008 10.368C55.16 10.944 56.0667 11.7653 56.728 12.832C57.3893 13.8773 57.72 15.1253 57.72 16.576C57.72 18.0267 57.3893 19.2853 56.728 20.352C56.0667 21.3973 55.16 22.208 54.008 22.784C52.8773 23.36 51.5973 23.648 50.168 23.648H44.504ZM41.304 32V9.504H45.656V32H41.304ZM60.5748 32V16.544H64.7988V32H60.5748ZM62.6868 14.048C62.0041 14.048 61.4388 13.824 60.9908 13.376C60.5428 12.9067 60.3188 12.3307 60.3188 11.648C60.3188 10.9867 60.5428 10.4213 60.9908 9.952C61.4388 9.48267 62.0041 9.248 62.6868 9.248C63.3908 9.248 63.9561 9.48267 64.3828 9.952C64.8308 10.4213 65.0548 10.9867 65.0548 11.648C65.0548 12.3307 64.8308 12.9067 64.3828 13.376C63.9561 13.824 63.3908 14.048 62.6868 14.048ZM78.1763 32L74.1123 25.728L73.2483 25.088L67.2323 16.544H72.1923L75.9363 22.208L76.7363 22.816L83.1042 32H78.1763ZM66.9123 32L73.2163 23.168L75.6163 26.016L71.6483 32H66.9123ZM76.8963 25.056L74.4323 22.24L78.1123 16.544H82.8162L76.8963 25.056ZM92.248 32.32C90.6267 32.32 89.1867 31.9787 87.928 31.296C86.6693 30.592 85.6667 29.632 84.92 28.416C84.1947 27.2 83.832 25.8133 83.832 24.256C83.832 22.72 84.184 21.3547 84.888 20.16C85.6133 18.944 86.5947 17.984 87.832 17.28C89.0693 16.5547 90.4453 16.192 91.96 16.192C93.4533 16.192 94.7653 16.5333 95.896 17.216C97.048 17.8773 97.944 18.7947 98.584 19.968C99.2453 21.12 99.576 22.432 99.576 23.904C99.576 24.1813 99.5547 24.4693 99.512 24.768C99.4907 25.0453 99.4373 25.3653 99.352 25.728L86.36 25.76V22.624L97.4 22.592L95.704 23.904C95.6613 22.9867 95.4907 22.2187 95.192 21.6C94.9147 20.9813 94.4987 20.512 93.944 20.192C93.4107 19.8507 92.7493 19.68 91.96 19.68C91.128 19.68 90.4027 19.872 89.784 20.256C89.1653 20.6187 88.6853 21.1413 88.344 21.824C88.024 22.4853 87.864 23.2747 87.864 24.192C87.864 25.1307 88.0347 25.952 88.376 26.656C88.7387 27.3387 89.2507 27.872 89.912 28.256C90.5733 28.6187 91.3413 28.8 92.216 28.8C93.0053 28.8 93.72 28.672 94.36 28.416C95 28.1387 95.5547 27.7333 96.024 27.2L98.488 29.664C97.7413 30.5387 96.824 31.2 95.736 31.648C94.6693 32.096 93.5067 32.32 92.248 32.32ZM102.169 32V8.864H106.361V32H102.169ZM112.955 32.32C112.187 32.32 111.557 32.064 111.067 31.552C110.576 31.04 110.331 30.4107 110.331 29.664C110.331 28.9173 110.576 28.288 111.067 27.776C111.557 27.264 112.187 27.008 112.955 27.008C113.701 27.008 114.32 27.264 114.811 27.776C115.301 28.288 115.547 28.9173 115.547 29.664C115.547 30.4107 115.301 31.04 114.811 31.552C114.32 32.064 113.701 32.32 112.955 32.32ZM119.512 32V16.544H123.736V32H119.512ZM121.624 14.048C120.942 14.048 120.376 13.824 119.928 13.376C119.48 12.9067 119.256 12.3307 119.256 11.648C119.256 10.9867 119.48 10.4213 119.928 9.952C120.376 9.48267 120.942 9.248 121.624 9.248C122.328 9.248 122.894 9.48267 123.32 9.952C123.768 10.4213 123.992 10.9867 123.992 11.648C123.992 12.3307 123.768 12.9067 123.32 13.376C122.894 13.824 122.328 14.048 121.624 14.048ZM134.714 32.32C133.156 32.32 131.748 31.968 130.49 31.264C129.252 30.5387 128.26 29.568 127.514 28.352C126.788 27.1147 126.426 25.7387 126.426 24.224C126.426 22.7093 126.788 21.3547 127.514 20.16C128.239 18.944 129.231 17.984 130.49 17.28C131.748 16.5547 133.146 16.192 134.682 16.192C136.26 16.192 137.668 16.5547 138.906 17.28C140.164 17.984 141.156 18.944 141.882 20.16C142.607 21.3547 142.97 22.7093 142.97 24.224C142.97 25.7387 142.607 27.1147 141.882 28.352C141.156 29.568 140.164 30.5387 138.906 31.264C137.668 31.968 136.271 32.32 134.714 32.32ZM134.682 28.416C135.471 28.416 136.164 28.2453 136.762 27.904C137.38 27.5413 137.85 27.0507 138.17 26.432C138.511 25.792 138.682 25.0667 138.682 24.256C138.682 23.4453 138.511 22.7307 138.17 22.112C137.828 21.4933 137.359 21.0133 136.762 20.672C136.164 20.3093 135.471 20.128 134.682 20.128C133.914 20.128 133.231 20.3093 132.634 20.672C132.036 21.0133 131.567 21.4933 131.226 22.112C130.884 22.7307 130.714 23.4453 130.714 24.256C130.714 25.0667 130.884 25.792 131.226 26.432C131.567 27.0507 132.036 27.5413 132.634 27.904C133.231 28.2453 133.914 28.416 134.682 28.416Z" fill="white"/>
</svg>
